:SAMPLES-PER-SECOND 30
:FULLY-SPECIFIED
:DEGREES
400
root  -19.2739 38.9473 5.0416 -171.509 -60.4972 162.889
RightUpLeg  -27.013 -4.09441 -8.05494
RightLeg  41.1672 -0.537931 -0.78524
RightFoot  -1.45987 -0.352695 3.93722
RightToes  0.000482159 0.542163 -0.142577
Spine  23.5845 -3.89336 -5.18035
Spine1  7.78818 -8.17514 10.9483
HEad  8.42702 1.34031 -1.57564
LeftShoulder1  10.1731 -16.3358 -44.6647
LeftArm  0.651694 -23.6131 -40.6921
LeftForeArm  12.2427 -35.9215 -7.40119
LeftHand  -0.25398 0.0180481 5.50724
RightShoulder  5.07155 9.65945 32.5865
RightArm  -10.5011 -14.4855 33.1293
RightForeArm  0.951896 75.9245 60.2646
RightHand  -3.07832 6.10621 -30.7487
LeftUpLeg  -1.43932 23.6161 -11.1916
LeftLeg  24.5407 6.63766 3.67193
LeftFoot  -17.088 0.295457 3.83998
LeftToes  1.06247e-005 4.65854e-005 -8.18501e-006
401
root  -21.08 38.9344 4.68091 -170.768 -60.1772 162.664
RightUpLeg  -26.6876 -12.0187 -3.99476
RightLeg  26.835 -0.0841603 -0.560293
RightFoot  -1.82417 -0.421811 4.90899
RightToes  0.000482159 0.542163 -0.142577
Spine  22.5882 -4.19176 -5.34744
Spine1  7.78535 -8.68926 11.8612
HEad  8.70814 0.663999 -1.09003
LeftShoulder1  10.121 -16.3357 -44.4256
LeftArm  0.0289939 -23.2388 -40.2045
LeftForeArm  12.3309 -36.3403 -7.51441
LeftHand  -0.25398 0.0180481 5.50724
RightShoulder  5.03773 9.58407 32.5502
RightArm  -9.86291 -14.2208 33.4268
RightForeArm  1.24752 75.8759 59.7805
RightHand  -3.02076 6.07548 -30.2819
LeftUpLeg  2.30922 24.106 -11.2116
LeftLeg  22.3313 6.83804 3.29301
LeftFoot  -18.8853 0.350383 3.59935
LeftToes  1.06247e-005 4.65854e-005 -8.18501e-006
402
root  -22.9125 38.8464 4.26129 -170.092 -60.0265 162.369
RightUpLeg  -25.467 -17.5078 -1.06742
RightLeg  12.41 -3.18568 1.50818
RightFoot  -1.56584 -0.410594 4.66497
RightToes  0.000482159 0.542163 -0.142577
Spine  21.4872 -4.49569 -5.40976
Spine1  8.11293 -9.26149 12.795
HEad  8.80626 -0.159836 -0.89823
LeftShoulder1  10.0921 -16.4156 -44.1049
LeftArm  -1.07888 -22.5356 -40.0517
LeftForeArm  12.5518 -37.0448 -7.70288
LeftHand  -0.25398 0.0180481 5.50724
RightShoulder  5.05808 9.57662 32.7274
RightArm  -9.35875 -14.6506 33.3911
RightForeArm  4.32453 76.2252 62.3911
RightHand  -2.93545 5.84854 -30.0323
LeftUpLeg  6.47844 22.6788 -11.1286
LeftLeg  19.7552 8.54988 2.3012
LeftFoot  -20.4554 0.358067 2.95203
LeftToes  1.06247e-005 4.65854e-005 -8.18501e-006
403
root  -24.8149 38.5758 3.74956 -168.858 -59.5539 161.003
RightUpLeg  -21.9955 -9.01352 -5.61358
RightLeg  0.0406339 -19.6082 7.10021
RightFoot  -1.84237 -0.526612 6.2233
RightToes  0.000482159 0.542163 -0.142577
Spine  20.4552 -4.44013 -6.349
Spine1  8.51585 -9.5867 13.7571
HEad  8.76309 -1.05581 -1.07022
LeftShoulder1  10.083 -16.5132 -43.836
LeftArm  -2.70377 -21.7067 -40.4625
LeftForeArm  13.0074 -37.8656 -7.91516
LeftHand  -0.25398 0.0180481 5.50724
RightShoulder  5.10963 9.61841 32.9969
RightArm  -8.9659 -15.6562 32.9669
RightForeArm  10.4559 76.8482 68.2766
RightHand  -2.80646 5.35491 -30.0226
LeftUpLeg  10.3944 18.7618 -12.1371
LeftLeg  18.2856 12.6788 1.18756
LeftFoot  -21.5132 0.312504 2.05487
LeftToes  1.06247e-005 4.65854e-005 -8.18501e-006
404
root  -26.806 38.2031 3.2156 -167.878 -58.9917 159.944
RightUpLeg  -20.5656 -8.99996 -5.24468
RightLeg  -5.45003 -24.2107 9.74522
RightFoot  -2.74053 -0.69365 8.88165
RightToes  0.000482159 0.542163 -0.142577
Spine  19.2312 -4.51266 -6.59728
Spine1  9.22689 -9.86576 14.2855
HEad  8.60079 -1.9265 -1.4797
LeftShoulder1  10.0833 -16.5311 -43.796
LeftArm  -4.31865 -20.8354 -41.0447
LeftForeArm  13.7053 -39.0993 -8.24469
LeftHand  -0.25398 0.0180481 5.50724
RightShoulder  5.10047 9.60075 32.9792
RightArm  -8.64783 -17.0146 32.7148
RightForeArm  19.7862 77.4489 76.6253
RightHand  -2.77238 5.20403 -30.0737
LeftUpLeg  13.7764 16.5766 -13.3934
LeftLeg  17.8925 15.2229 0.979746
LeftFoot  -22.2149 0.218577 0.90517
LeftToes  1.06247e-005 4.65854e-005 -8.18501e-006
